<mxfile host="app.diagrams.net" modified="2024-03-01T05:33:07.354Z" agent="Mozilla/5.0 (Macintosh; Intel Mac OS X 10_15_7) AppleWebKit/537.36 (KHTML, like Gecko) Chrome/120.0.0.0 Safari/537.36" version="24.0.0" etag="EWA4AX6GFRWTJ2_7Bvwx" type="github">
  <diagram name="Page-1" id="zNbUTAYtBZEvklkn2Yrj">
    <mxGraphModel>
      <root>
        <mxCell id="0" />
        <mxCell id="1" parent="0" />
      </root>
    </mxGraphModel>
  </diagram>
</mxfile>
